<svg id="Capa_1" enable-background="new 0 0 512 512" height="512" viewBox="0 0 512 512" width="512" xmlns="http://www.w3.org/2000/svg" xmlns:xlink="http://www.w3.org/1999/xlink"><linearGradient id="SVGID_1_" gradientUnits="userSpaceOnUse" x1="256" x2="256" y1="512" y2="0"><stop offset="0" stop-color="#009efd"/><stop offset="1" stop-color="#2af598"/></linearGradient><g><g><path d="m316 236h-120v40h120zm0-160h-120v40h120zm0 80h-120v40h120zm80-156h-280v356h280zm-40 316h-200v-276h200zm96-240h-16v40h16c11.028 0 20 8.972 20 20v240c0 11.028-8.972 20-20 20h-392c-11.028 0-20-8.972-20-20v-240c0-11.028 8.972-20 20-20h20v-40h-20c-33.084 0-60 26.916-60 60v240c0 33.084 26.916 60 60 60h136v16c0 11.028-8.972 20-20 20h-20v40h200v-40c-6.952 0-13.069 0-20 0-11.028 0-20-8.972-20-20v-16h136c33.084 0 60-26.916 60-60v-240c0-33.084-26.916-60-60-60zm-219.44 396c2.22-6.26 3.44-12.989 3.44-20v-16h40v16c0 7.011 1.22 13.74 3.44 20z" fill="url(#SVGID_1_)"/></g></g></svg>