<svg id="Capa_1" enable-background="new 0 0 512 512" height="512" viewBox="0 0 512 512" width="512" xmlns="http://www.w3.org/2000/svg" xmlns:xlink="http://www.w3.org/1999/xlink"><linearGradient id="SVGID_1_" gradientUnits="userSpaceOnUse" x1="256" x2="256" y1="512" y2="0"><stop offset="0" stop-color="#009efd"/><stop offset="1" stop-color="#2af598"/></linearGradient><g><g><path d="m276 160v88.284l88.284-88.284h31.716c44.112 0 80-35.888 80-80s-35.888-80-80-80h-120c-44.112 0-80 35.888-80 80s35.888 80 80 80zm0-120h120c22.056 0 40 17.944 40 40s-17.944 40-40 40h-48.284l-31.716 31.716v-31.716h-40c-22.056 0-40-17.944-40-40s17.944-40 40-40zm-40 212c0-33.084-26.916-60-60-60s-60 26.916-60 60 26.916 60 60 60 60-26.916 60-60zm-60 20c-11.028 0-20-8.972-20-20s8.972-20 20-20 20 8.972 20 20-8.972 20-20 20zm296-122.121v222.121c0 11.028-8.972 20-20 20h-176v-20c0-33.084-26.916-60-60-60h-40-40c-33.084 0-60 26.916-60 60v20h-16c-11.028 0-20-8.972-20-20v-240c0-11.028 8.972-20 20-20h97.424v-40h-97.424c-33.084 0-60 26.916-60 60v240c0 33.084 26.916 60 60 60h136v20c0 11.028-8.972 20-20 20h-40v40h240v-40h-40c-11.028 0-20-8.972-20-20v-20h136c33.084 0 60-26.916 60-60v-222.121zm-356 242.121v-20c0-11.028 8.972-20 20-20h80c11.028 0 20 8.972 20 20v20zm116.573 80c2.219-6.258 3.427-12.991 3.427-20v-20h40v20c0 7.009 1.208 13.742 3.427 20z" fill="url(#SVGID_1_)"/></g></g></svg>