<svg id="Capa_1" enable-background="new 0 0 512 512" height="512" viewBox="0 0 512 512" width="512" xmlns="http://www.w3.org/2000/svg" xmlns:xlink="http://www.w3.org/1999/xlink"><linearGradient id="SVGID_1_" gradientUnits="userSpaceOnUse" x1="256" x2="256" y1="496" y2="16"><stop offset="0" stop-color="#009efd"/><stop offset="1" stop-color="#2af598"/></linearGradient><g><g><path d="m276 136h160v-40h-160zm176-120h-392c-33.084 0-60 26.916-60 60v240c0 33.084 26.916 60 60 60h128.251l-26.667 80h-45.584v40h280v-40h-45.585l-26.667-80h128.252c33.084 0 60-26.916 60-60v-240c0-33.084-26.916-60-60-60zm-248.251 440 26.667-80h51.169l26.667 80zm268.251-140c0 11.028-8.972 20-20 20h-392c-11.028 0-20-8.972-20-20v-240c0-11.028 8.972-20 20-20h392c11.028 0 20 8.972 20 20zm-396-20h160v-200h-160zm40-160h80v120h-80zm160 160h160v-40h-160zm0-80h160v-40h-160z" fill="url(#SVGID_1_)"/></g></g></svg>