<svg height="512" viewBox="0 0 64 64" width="512" xmlns="http://www.w3.org/2000/svg"><g id="Layer_21" data-name="Layer 21"><path d="m3 44a3 3 0 0 0 3 3h52a3 3 0 0 0 3-3v-1h-58z"/><path d="m25.721 49-1.333 4h15.224l-1.333-4z"/><path d="m47 17a7 7 0 1 0 -7-7 7.008 7.008 0 0 0 7 7zm-3.293-6.707 1.293 1.293 5.293-5.293 1.414 1.414-6 6a1 1 0 0 1 -1.414 0l-2-2z"/><path d="m32 16h-24a1 1 0 0 0 -1 1v18a1 1 0 0 0 1 1h24a1 1 0 0 0 1-1v-18a1 1 0 0 0 -1-1zm-15.445 13.168-1.11 1.664-6-4a1 1 0 0 1 0-1.664l6-4 1.11 1.664-4.755 3.168zm2.374 2.2-1.858-.742 4-10 1.858.742zm11.626-4.539-6 4-1.11-1.664 4.755-3.165-4.752-3.168 1.11-1.664 6 4a1 1 0 0 1 0 1.664z"/><path d="m43 55h-22a3 3 0 0 0 -3 3v2a1 1 0 0 0 1 1h26a1 1 0 0 0 1-1v-2a3 3 0 0 0 -3-3z"/><path d="m58 11h-2.059a9 9 0 0 1 -17.882 0h-32.059a3 3 0 0 0 -3 3v27h58v-27a3 3 0 0 0 -3-3zm-17 11h12v2h-12zm-6 13a3 3 0 0 1 -3 3h-24a3 3 0 0 1 -3-3v-18a3 3 0 0 1 3-3h24a3 3 0 0 1 3 3zm24 1h-22v-2h22zm0-4h-22v-2h22zm0-4h-22v-2h22zm0-4h-4v-2h4z"/></g></svg>