<svg id="Layer_1" enable-background="new 0 0 510.679 510.679" height="512" viewBox="0 0 510.679 510.679" width="512" xmlns="http://www.w3.org/2000/svg"><g><path d="m292.357 291.223-21.568 20.854 17.697 18.301 26.422 5.748-4.855-26.601z"/><path d="m198.799 164.056h30v135h-30z" transform="matrix(.719 -.695 .695 .719 -100.858 213.696)"/><path d="m146.383 140.253c-14.283-13.774-34.877 6.008-21.566 20.852l10.426 10.783 21.566-20.853z"/><path d="m490.568 297.381-53.506-90.144c-1.089-53.977-23.255-104.909-62.695-143.836-182.233-167.578-434.499 25.48-337.948 248.522 13.349 31.372 31.993 57.918 54.181 77.235v121.52h255v-75h58.68c17.27 0 31.32-14.045 31.32-31.31v-58.69h28.656c11.568 0 22.146-6.335 27.607-16.533 5.391-10.065 4.885-22.193-1.295-31.764zm-217.335 60.38-169.984-175.802c-8.356-8.641-12.846-20.018-12.644-32.037.418-24.722 20.737-44.652 45.751-44.236 12.019.202 23.238 5.072 31.594 13.714l169.983 175.801 14.569 79.807z"/></g></svg>